<?xml version="1.0" encoding="utf-8"?>
<!-- Generator: Adobe Illustrator 18.0.0, SVG Export Plug-In . SVG Version: 6.00 Build 0)  -->
<!DOCTYPE svg PUBLIC "-//W3C//DTD SVG 1.1//EN" "http://www.w3.org/Graphics/SVG/1.1/DTD/svg11.dtd">
<svg version="1.1" id="Layer_1" xmlns="http://www.w3.org/2000/svg" xmlns:xlink="http://www.w3.org/1999/xlink" x="0px" y="0px"
	 viewBox="0 0 64 64" enable-background="new 0 0 64 64" xml:space="preserve">
<g>
	<g>
		<g>
			<path d="M60,0H4C1.8,0,0,1.8,0,4v8h0v48c0,2.2,1.8,4,4,4h56c2.2,0,4-1.8,4-4V13v-1V4C64,1.8,62.2,0,60,0z M23.4,45.6l-2.8,2.8
				L10.2,38l10.4-10.4l2.8,2.8L15.8,38L23.4,45.6z M28.9,51.7l-3.8-1.4l10-27l3.8,1.4L28.9,51.7z M43.4,48.4l-2.8-2.8l7.6-7.6
				l-7.6-7.6l2.8-2.8L53.8,38L43.4,48.4z M4,12V4h56v8H4z"/>
		</g>
	</g>
	<g>
		<g>
			<circle cx="8" cy="8" r="2"/>
		</g>
	</g>
	<g>
		<g>
			<circle cx="13" cy="8" r="2"/>
		</g>
	</g>
	<g>
		<g>
			<circle cx="18" cy="8" r="2"/>
		</g>
	</g>
</g>
</svg>
