<svg width="189" height="52" viewBox="0 0 189 52" fill="none" xmlns="http://www.w3.org/2000/svg">
<g clip-path="url(#clip0_9456_36408)">
<path d="M0 15.4998H32.1429C34.2731 15.4998 36 17.2267 36 19.3569V51.4998H0V15.4998Z" fill="#506FBA"/>
<path d="M49 37.4998H16.8571C14.7269 37.4998 13 35.7729 13 33.6426V1.49976H49V37.4998Z" fill="#F34B58"/>
<path d="M36 37.4998H17.0588C14.8172 37.4998 13 35.7616 13 33.6174V15.4998H31.9412C34.1828 15.4998 36 17.2379 36 19.3821V37.4998Z" fill="#340D23"/>
<path d="M78.6859 10.0327V1.28662H77.5169V10.0327H72.165V1.28662H70.9961V10.0327V11.1453H79.207V13.2157H80.376V10.0327H78.6859Z" fill="#340D23"/>
<path d="M85.3804 3.24463C83.0706 3.24463 81.4229 4.94877 81.4229 7.30076C81.4229 9.66685 83.0988 11.3006 85.3945 11.3006C87.0141 11.3006 88.4225 10.4978 89.0703 8.84998H87.8591C87.3943 9.75135 86.5071 10.202 85.4367 10.202C83.8734 10.202 82.7326 9.23025 82.6199 7.62469H89.2534C89.352 5.07553 87.7887 3.24463 85.3804 3.24463ZM85.3804 4.34316C86.7746 4.34316 87.7324 5.23045 87.9858 6.52616H82.6763C82.9438 5.25862 83.9578 4.34316 85.3804 4.34316Z" fill="#340D23"/>
<path d="M96.8912 3.39917V6.62436H92.1309V3.39917H90.9619V11.1453H92.1309V7.73698H96.8912V11.1453H98.0601V3.39917H96.8912Z" fill="#340D23"/>
<path d="M105.994 3.39917H103.318H99.4727V4.4977H102.149V11.1453H103.318V4.4977H105.994V3.39917Z" fill="#340D23"/>
<path d="M111.622 3.24463C110.285 3.24463 109.228 3.93474 108.637 4.99102V3.39955H107.468V14.6666H108.637V9.58235C109.228 10.6245 110.27 11.3006 111.608 11.3006C113.721 11.3006 115.242 9.61051 115.242 7.27259C115.242 4.9206 113.721 3.24463 111.622 3.24463ZM111.397 10.1879C109.82 10.1879 108.623 8.97674 108.623 7.27259C108.623 5.56846 109.82 4.35725 111.397 4.35725C112.96 4.35725 114.059 5.58255 114.059 7.27259C114.059 8.97674 112.96 10.1879 111.397 10.1879Z" fill="#340D23"/>
<path d="M78.6506 28.4352V19.6892H72.7635L71.6509 26.4636C71.4537 27.6043 71.2566 28.1818 70.9045 28.4352H69.4961V31.6182H70.665V29.5479H78.876V31.6182H80.0589V28.4352H78.6506ZM72.8058 26.534L73.7494 20.8019H77.4817V28.4352H72.2284C72.4818 28.0551 72.6509 27.4494 72.8058 26.534Z" fill="#340D23"/>
<path d="M87.1481 21.8018L82.6835 28.1113L82.7539 25.5199V21.8018H81.585V29.5479H83.0216L87.4861 23.2243L87.4157 25.8297V29.5479H88.5847V21.8018H87.1481Z" fill="#340D23"/>
<path d="M94.3387 29.7032C96.1133 29.7032 97.6765 28.6469 98.099 26.8441H96.8878C96.5217 27.9286 95.5358 28.6187 94.3387 28.6187C92.719 28.6187 91.5219 27.3935 91.5219 25.6752C91.5219 23.9711 92.7049 22.7317 94.3387 22.7317C95.5358 22.7317 96.5217 23.4078 96.8878 24.5062H98.099C97.6906 22.7317 96.1414 21.6472 94.3387 21.6472C92.0712 21.6472 90.3389 23.3655 90.3389 25.6752C90.3389 27.985 92.0712 29.7032 94.3387 29.7032Z" fill="#340D23"/>
<path d="M105.324 21.8018H102.648H98.8027V22.9003H101.479V29.5479H102.648V22.9003H105.324V21.8018Z" fill="#340D23"/>
<path d="M112.774 21.8022V23.3936C112.183 22.3374 111.126 21.6472 109.788 21.6472C107.69 21.6472 106.169 23.3233 106.169 25.6752C106.169 28.0131 107.676 29.7032 109.788 29.7032C111.126 29.7032 112.169 29.0272 112.774 27.985V29.5483H113.943V21.8022H112.774ZM110.014 28.5906C108.45 28.5906 107.352 27.3794 107.352 25.6752C107.352 23.9852 108.436 22.7599 110.014 22.7599C111.591 22.7599 112.788 23.9711 112.788 25.6752C112.788 27.3794 111.591 28.5906 110.014 28.5906Z" fill="#340D23"/>
<path d="M121.954 21.8018V25.0269H117.194V21.8018H116.024V29.5479H117.194V26.1395H121.954V29.5479H123.122V21.8018H121.954Z" fill="#340D23"/>
<path d="M132.043 28.4493V21.8018H130.874V28.4493H126.381V21.8018H125.212V29.5479H125.592H130.874H132.282V31.6181H133.452V28.4493H132.043Z" fill="#340D23"/>
<path d="M140.417 21.8018L135.951 28.1113L136.022 25.5199V21.8018H134.853V29.5479H136.289L140.754 23.2243L140.684 25.8297V29.5479H141.852V21.8018H140.417Z" fill="#340D23"/>
<path d="M147.594 21.6472C145.396 21.6472 143.607 23.3514 143.607 25.6752C143.607 27.985 145.368 29.7032 147.594 29.7032C149.832 29.7032 151.593 27.9991 151.593 25.6752C151.593 23.3514 149.805 21.6472 147.594 21.6472ZM147.594 22.7599C149.157 22.7599 150.41 23.9711 150.41 25.6752C150.41 27.3794 149.17 28.5906 147.594 28.5906C146.03 28.5906 144.79 27.3794 144.79 25.6752C144.79 23.957 146.044 22.7599 147.594 22.7599Z" fill="#340D23"/>
<path d="M159.281 21.8018V25.0269H154.521V21.8018H153.352V29.5479H154.521V26.1395H159.281V29.5479H160.449V21.8018H159.281Z" fill="#340D23"/>
<path d="M168.469 21.8018V25.0269H163.708V21.8018H162.539V29.5479H163.708V26.1395H168.469V29.5479H169.638V21.8018H168.469Z" fill="#340D23"/>
<path d="M175.389 24.365H172.897V21.8018H171.728V29.5479H175.333C177.079 29.5479 178.122 28.6043 178.122 26.9142C178.122 25.21 177.136 24.365 175.389 24.365ZM179.347 21.8018V29.5479H180.516V21.8018H179.347ZM175.319 28.4352H172.897V25.4072H175.333C176.601 25.4072 176.939 26.041 176.939 26.9142C176.939 27.7592 176.586 28.4352 175.319 28.4352Z" fill="#340D23"/>
<path d="M189 29.5479L186.183 25.5763L188.859 21.8018H187.437L185.48 24.6889L183.493 21.8018H182.085L184.746 25.5622L181.93 29.5479H183.338L185.451 26.4636L187.592 29.5479H189Z" fill="#340D23"/>
<path d="M77.6139 36.6284H70.0791V37.741H73.248V46.487H74.431V37.741H77.6139V36.6284Z" fill="#340D23"/>
<path d="M81.346 38.5864C79.1489 38.5864 77.3604 40.2905 77.3604 42.6144C77.3604 44.9241 79.1208 46.6424 81.346 46.6424C83.5854 46.6424 85.3458 44.9382 85.3458 42.6144C85.3458 40.2905 83.5572 38.5864 81.346 38.5864ZM81.346 39.699C82.9093 39.699 84.1628 40.9102 84.1628 42.6144C84.1628 44.3185 82.9234 45.5297 81.346 45.5297C79.7827 45.5297 78.5433 44.3185 78.5433 42.6144C78.5433 40.8961 79.7969 39.699 81.346 39.699Z" fill="#340D23"/>
<path d="M91.3305 38.5864C89.9926 38.5864 88.9363 39.2765 88.3447 40.3327V38.7413H87.1758V50.0084H88.3447V44.9241C88.9363 45.9663 89.9784 46.6424 91.3165 46.6424C93.4291 46.6424 94.9501 44.9523 94.9501 42.6144C94.9501 40.2624 93.4291 38.5864 91.3305 38.5864ZM91.1052 45.5297C89.5278 45.5297 88.3307 44.3185 88.3307 42.6144C88.3307 40.9102 89.5278 39.699 91.1052 39.699C92.6685 39.699 93.767 40.9243 93.767 42.6144C93.767 44.3185 92.6685 45.5297 91.1052 45.5297Z" fill="#340D23"/>
<path d="M101.761 38.741H96.7188V46.4871H97.8877V39.8396H101.761V38.741Z" fill="#340D23"/>
<path d="M106.598 38.5864C104.401 38.5864 102.612 40.2905 102.612 42.6144C102.612 44.9241 104.373 46.6424 106.598 46.6424C108.837 46.6424 110.598 44.9382 110.598 42.6144C110.598 40.2905 108.809 38.5864 106.598 38.5864ZM106.598 39.699C108.161 39.699 109.415 40.9102 109.415 42.6144C109.415 44.3185 108.175 45.5297 106.598 45.5297C105.035 45.5297 103.795 44.3185 103.795 42.6144C103.795 40.8961 105.049 39.699 106.598 39.699Z" fill="#340D23"/>
<path d="M117.398 42.3605C118.117 41.9944 118.525 41.4592 118.525 40.7127C118.525 39.3889 117.624 38.741 115.821 38.741H112.356V46.4871H116.173C118.004 46.4871 118.892 45.628 118.892 44.2901C118.892 43.3745 118.426 42.6422 117.398 42.3605ZM117.342 40.9099C117.342 41.5437 116.934 42.0507 115.708 42.0507H113.525V39.6846H115.737C117.018 39.6846 117.342 40.1776 117.342 40.9099ZM116.102 45.5435H113.525V42.9239H116.075C117.314 42.9239 117.723 43.4873 117.723 44.1915C117.723 44.9379 117.384 45.5435 116.102 45.5435Z" fill="#340D23"/>
</g>
<defs>
<clipPath id="clip0_9456_36408">
<rect width="189" height="50.0964" fill="white" transform="translate(0 0.951904)"/>
</clipPath>
</defs>
</svg>
