<svg width="148" height="42" viewBox="0 0 148 42" fill="none" xmlns="http://www.w3.org/2000/svg">
<path d="M135.918 21.6653C137.132 21.6653 138.117 20.6736 138.117 19.4503C138.117 18.227 137.132 17.2354 135.918 17.2354C134.703 17.2354 133.719 18.227 133.719 19.4503C133.719 20.6736 134.703 21.6653 135.918 21.6653Z" fill="#D70000"/>
<path d="M10.3861 2.18565H18.8728V0.395996H7.24219V14.4648H10.3861V2.18565Z" fill="#D70000"/>
<path d="M21.7297 12.9529C22.4237 13.5803 23.2724 14.0604 24.2549 14.3804C25.229 14.6962 26.3201 14.8604 27.5033 14.8604C28.6864 14.8604 29.7734 14.7004 30.7433 14.3804C31.7174 14.0604 32.5661 13.5803 33.2559 12.9529C33.954 12.3254 34.5017 11.538 34.8863 10.6158C35.271 9.69782 35.4633 8.62403 35.4633 7.43233C35.4633 6.24063 35.271 5.16684 34.8863 4.24464C34.5017 3.32244 33.954 2.53499 33.2559 1.90756C32.5619 1.28013 31.7132 0.80008 30.7433 0.480048C29.7775 0.160016 28.6864 0 27.5033 0C26.3201 0 25.229 0.160016 24.2549 0.480048C23.2766 0.80008 22.4279 1.28013 21.7297 1.90756C21.0316 2.53499 20.4881 3.32244 20.1076 4.24464C19.7314 5.16684 19.5391 6.23642 19.5391 7.42812C19.5391 8.61981 19.7314 9.69361 20.1076 10.6116C20.4881 11.5338 21.0316 12.3212 21.7297 12.9487V12.9529ZM22.8794 7.43233C22.8794 6.44697 23.0048 5.57951 23.2515 4.85944C23.4982 4.14358 23.8326 3.54141 24.2423 3.0782C24.6562 2.615 25.1454 2.26549 25.6972 2.0381C26.2532 1.81071 26.8636 1.69701 27.5033 1.69701C28.1429 1.69701 28.7491 1.81071 29.3093 2.0381C29.8612 2.26549 30.3503 2.615 30.7642 3.0782C31.1781 3.54141 31.5125 4.14358 31.7592 4.85944C32.0058 5.57951 32.1313 6.44697 32.1313 7.43233C32.1313 8.41769 32.0058 9.28514 31.7592 10.0052C31.5125 10.7253 31.1781 11.3233 30.7642 11.7907C30.3545 12.2539 29.8653 12.6034 29.3093 12.8308C28.1931 13.2856 26.8218 13.2856 25.7014 12.8308C25.1495 12.6076 24.6604 12.2581 24.2465 11.7907C23.8326 11.3233 23.4982 10.7253 23.2515 10.0052C23.0048 9.28514 22.8794 8.4219 22.8794 7.43233Z" fill="#D70000"/>
<path d="M42.5538 10.338H46.6006C47.5873 10.338 48.4861 10.2286 49.2721 10.0096C50.0622 9.79063 50.7395 9.46639 51.2914 9.04108C51.8432 8.61578 52.2696 8.08519 52.5665 7.47039C52.8633 6.8556 53.0138 6.14815 53.0138 5.36913C53.0138 4.5901 52.8633 3.88267 52.5707 3.26787C52.2738 2.65307 51.8432 2.12248 51.2956 1.69718C50.7479 1.27187 50.0664 0.947628 49.2763 0.728658C48.4903 0.509689 47.5957 0.395996 46.6048 0.395996H39.4141V14.469H42.5579V10.3423L42.5538 10.338ZM42.5538 2.18144H46.5923C47.5747 2.18144 48.3398 2.44252 48.8749 2.95205C49.4059 3.46157 49.6734 4.27428 49.6734 5.36492C49.6734 6.45555 49.4059 7.26827 48.8749 7.7778C48.344 8.29153 47.5747 8.5484 46.5923 8.5484H42.5538V2.18565V2.18144Z" fill="#D70000"/>
<path d="M67.9863 3.33524V14.4648H71.1301V0.395996H67.1836L59.9134 11.5255V0.395996H56.7695V14.4648H60.7161L67.9863 3.33524Z" fill="#D70000"/>
<path d="M84.7927 12.3125C84.4791 12.5483 84.0611 12.7336 83.551 12.8641C83.0326 12.9989 82.3972 13.0663 81.6572 13.0663C80.704 13.0663 79.8093 12.9147 78.9983 12.6157C78.1914 12.3167 77.4138 11.824 76.6905 11.1461L76.5693 11.0324L75.3945 12.4557L75.5032 12.5567C76.2558 13.2642 77.1922 13.8284 78.275 14.2411C79.362 14.6538 80.566 14.8601 81.8495 14.8601C83.133 14.8601 84.1907 14.7549 85.0853 14.5443C85.9842 14.3296 86.7325 14.0348 87.3095 13.6684C87.8948 13.2937 88.3337 12.8473 88.6097 12.3336C88.8898 11.8198 89.0277 11.264 89.0277 10.6744C89.0277 9.69329 88.7351 8.889 88.154 8.27841C87.6732 7.76889 87.0294 7.38148 86.2392 7.1204C86.929 6.82564 87.4558 6.43823 87.8028 5.96661C88.225 5.39813 88.4382 4.66964 88.4382 3.79797C88.4382 3.26318 88.3045 2.75366 88.0369 2.28624C87.7735 1.82304 87.3722 1.41457 86.8454 1.07348C86.3228 0.736609 85.6706 0.471321 84.9056 0.286039C84.1405 0.100757 83.2458 0.00390625 82.2341 0.00390625C81.0008 0.00390625 79.847 0.193393 78.806 0.563957C77.765 0.934521 76.8578 1.45247 76.1011 2.10517L75.9882 2.20202L77.0543 3.63374L77.1797 3.52426C77.9029 2.89683 78.6722 2.45046 79.4581 2.18938C80.2525 1.92831 81.1179 1.79356 82.0334 1.79356C83.0201 1.79356 83.7893 2.0041 84.3161 2.42099C84.8387 2.83366 85.0937 3.3474 85.0937 3.99589C85.0937 5.60868 84.2199 6.39192 82.4222 6.39192H78.5593V8.18157H82.811C83.7935 8.18157 84.5293 8.38369 84.9934 8.78373C85.4532 9.17956 85.679 9.73541 85.679 10.4807C85.679 10.8471 85.6037 11.1924 85.4616 11.504C85.3153 11.8114 85.0853 12.0893 84.776 12.3209L84.7927 12.3125Z" fill="#D70000"/>
<path d="M94.2063 12.9529C94.9003 13.5803 95.749 14.0604 96.7314 14.3804C97.7055 14.6962 98.7967 14.8604 99.9798 14.8604C101.163 14.8604 102.25 14.7004 103.22 14.3804C104.194 14.0604 105.043 13.5803 105.732 12.9529C106.431 12.3254 106.978 11.538 107.363 10.6158C107.748 9.69782 107.94 8.62403 107.94 7.43233C107.94 6.24063 107.748 5.16684 107.363 4.24464C106.978 3.32244 106.431 2.53499 105.732 1.90756C105.038 1.28013 104.194 0.80008 103.22 0.480048C102.254 0.160016 101.163 0 99.9798 0C98.7967 0 97.7055 0.160016 96.7314 0.480048C95.7531 0.80008 94.9045 1.28013 94.2063 1.90756C93.5081 2.5392 92.9646 3.32244 92.5842 4.24464C92.2079 5.16263 92.0156 6.23642 92.0156 7.42812C92.0156 8.61981 92.2079 9.69361 92.5842 10.6116C92.9605 11.5338 93.5081 12.3212 94.2063 12.9487V12.9529ZM95.356 7.43233C95.356 6.44697 95.4814 5.57951 95.7281 4.85944C95.9747 4.14358 96.3092 3.54141 96.7231 3.07399C97.1328 2.61079 97.6219 2.26128 98.1779 2.03389C98.734 1.8065 99.3444 1.6928 99.984 1.6928C100.624 1.6928 101.23 1.8065 101.79 2.03389C102.342 2.26128 102.831 2.61079 103.245 3.07399C103.659 3.54141 103.993 4.13936 104.24 4.85523C104.487 5.5753 104.612 6.43854 104.612 7.42812C104.612 8.41769 104.487 9.28094 104.24 10.001C103.993 10.7169 103.659 11.319 103.245 11.7865C102.835 12.2497 102.346 12.5992 101.79 12.8266C100.674 13.2813 99.2984 13.2813 98.1821 12.8266C97.6303 12.6034 97.1411 12.2539 96.7272 11.7865C96.3134 11.319 95.9789 10.7211 95.7322 10.001C95.4856 9.28094 95.3602 8.41769 95.3602 7.42812L95.356 7.43233Z" fill="#D70000"/>
<path d="M115.105 8.4726H122.789V14.4648H125.933V0.395996H122.789V6.68295H115.105V0.395996H111.961V14.4648H115.105V8.4726Z" fill="#D70000"/>
<path d="M134.346 14.4648H137.49V2.18565H142.757V0.395996H129.078V2.18565H134.346V14.4648Z" fill="#D70000"/>
<path d="M4.89844 41.6083H8.0423V29.3292H15.7264V41.6083H18.8703V27.5396H4.89844V41.6083Z" fill="#D70000"/>
<path d="M35.666 29.0516C34.9678 28.4242 34.1233 27.9441 33.1534 27.6241C32.1877 27.3041 31.0965 27.144 29.9134 27.144C28.7303 27.144 27.6391 27.3041 26.665 27.6241C25.6867 27.9441 24.8381 28.4242 24.1399 29.0516C23.4417 29.679 22.8982 30.4665 22.5178 31.3887C22.1415 32.3067 21.9492 33.3805 21.9492 34.5722C21.9492 35.7639 22.1415 36.8376 22.5178 37.7556C22.894 38.6778 23.4417 39.4653 24.1399 40.0927C24.8339 40.7201 25.6826 41.2002 26.665 41.5202C27.6391 41.836 28.7303 42.0003 29.9134 42.0003C31.0965 42.0003 32.1835 41.8403 33.1534 41.5202C34.1275 41.2002 34.972 40.7201 35.666 40.0927C36.3642 39.4653 36.9119 38.6778 37.2965 37.7556C37.6811 36.8376 37.8734 35.7639 37.8734 34.5722C37.8734 33.3805 37.6811 32.3067 37.2965 31.3845C36.9119 30.4623 36.3642 29.679 35.666 29.0474V29.0516ZM34.5372 34.5722C34.5372 35.5575 34.4118 36.425 34.1652 37.145C33.9185 37.8651 33.584 38.4631 33.1702 38.9305C32.7604 39.3937 32.2713 39.7432 31.7153 39.9706C30.599 40.4254 29.2236 40.4254 28.1074 39.9706C27.5555 39.7474 27.0664 39.3979 26.6525 38.9305C26.2386 38.4673 25.9041 37.8651 25.6617 37.145C25.415 36.425 25.2896 35.5617 25.2896 34.5722C25.2896 33.5826 25.415 32.7193 25.6617 31.9993C25.9083 31.2834 26.2428 30.6812 26.6525 30.218C27.0664 29.7548 27.5555 29.4053 28.1074 29.1779C28.6634 28.9505 29.2738 28.8368 29.9134 28.8368C30.553 28.8368 31.1592 28.9505 31.7195 29.1779C32.2713 29.4053 32.7605 29.7548 33.1743 30.218C33.5882 30.6854 33.9227 31.2834 34.1652 31.9993C34.4118 32.7193 34.5372 33.5868 34.5372 34.5722Z" fill="#D70000"/>
<path d="M54.7119 27.5396H51.2043L46.7184 33.7296H43.7334V27.5396H40.5938V41.6083H43.7334V35.5193H46.9149L51.4008 41.6083H55.0129L49.7243 34.475L54.7119 27.5396Z" fill="#D70000"/>
<path d="M69.2916 28.8363C68.744 28.411 68.0625 28.0868 67.2724 27.8678C66.4906 27.6489 65.5917 27.5352 64.6009 27.5352H57.4102V41.6082H60.554V37.4814H64.6009C65.5876 37.4814 66.4864 37.3719 67.2724 37.153C68.0625 36.934 68.7398 36.6098 69.2916 36.1845C69.8435 35.7591 70.2741 35.2286 70.5667 34.6138C70.8636 33.999 71.0141 33.2915 71.0141 32.5125C71.0141 31.7335 70.8636 31.026 70.5667 30.4112C70.2699 29.7964 69.8393 29.2659 69.2916 28.8406V28.8363ZM60.554 29.3248H64.5926C65.575 29.3248 66.3401 29.5859 66.8752 30.0954C67.4061 30.6049 67.6737 31.4177 67.6737 32.5041C67.6737 33.5905 67.4061 34.4032 66.8752 34.9127C66.3443 35.4265 65.575 35.6833 64.5926 35.6833H60.554V29.3206V29.3248Z" fill="#D70000"/>
<path d="M91.9173 27.5396H88.7734V41.6125H91.9173V27.5396Z" fill="#D70000"/>
<path d="M85.5509 33.8475C84.5141 33.0517 82.9588 32.6474 80.9312 32.6474H77.0892V27.5396H73.9453V41.6125H80.9312C82.9588 41.6125 84.5141 41.2083 85.5509 40.4124C86.6002 39.6039 87.1353 38.5007 87.1353 37.1321C87.1353 35.7635 86.6044 34.6603 85.5509 33.8518V33.8475ZM83.0425 39.1407C82.5324 39.5913 81.8217 39.8187 80.9312 39.8187H77.0892V34.4371H80.9312C81.8217 34.4371 82.5324 34.6645 83.0425 35.115C83.5441 35.5614 83.7992 36.2394 83.7992 37.1279C83.7992 38.0164 83.5441 38.6944 83.0425 39.1407Z" fill="#D70000"/>
<path d="M94.5703 29.3292H99.838V41.6083H102.982V29.3292H108.249V27.5396H94.5703V29.3292Z" fill="#D70000"/>
<path d="M113.706 38.6691V27.5396H110.566V41.6083H114.513L121.783 30.4788V41.6083H124.927V27.5396H120.976L113.706 38.6691Z" fill="#D70000"/>
<path d="M131.882 38.6691V27.5396H128.742V41.6083H132.689L139.959 30.4788V41.6083H143.103V27.5396H139.152L131.882 38.6691Z" fill="#D70000"/>
<path d="M139.57 19.4375C139.57 19.4375 139.57 19.4501 139.57 19.4543C139.57 20.7682 138.825 21.9262 137.797 22.5747C137.797 22.6041 137.797 22.6041 137.797 22.6041H148.002V19.4375H139.57Z" fill="#D70000"/>
<path d="M132.264 19.4504C132.264 19.4504 132.264 19.4378 132.264 19.4336H132.235H0V22.6002H133.719H133.878H134.041C134.041 22.6002 134.041 22.6002 134.041 22.5707C133.038 21.9138 132.268 20.7432 132.268 19.4504H132.264Z" fill="#D70000"/>
</svg>
