<?xml version="1.0" encoding="UTF-8" standalone="no"?>
<svg
   xmlns:dc="http://purl.org/dc/elements/1.1/"
   xmlns:cc="http://creativecommons.org/ns#"
   xmlns:rdf="http://www.w3.org/1999/02/22-rdf-syntax-ns#"
   xmlns:svg="http://www.w3.org/2000/svg"
   xmlns="http://www.w3.org/2000/svg"
   viewBox="0 0 1257.3333 388"
   height="388"
   width="1257.3333"
   xml:space="preserve"
   id="svg2"
   version="1.1"><metadata
     id="metadata8"><rdf:RDF><cc:Work
         rdf:about=""><dc:format>image/svg+xml</dc:format><dc:type
           rdf:resource="http://purl.org/dc/dcmitype/StillImage" /></cc:Work></rdf:RDF></metadata><defs
     id="defs6"><clipPath
       id="clipPath18"
       clipPathUnits="userSpaceOnUse"><path
         id="path16"
         d="M 0,291 H 943 V 0 H 0 Z" /></clipPath></defs><g
     transform="matrix(1.3333333,0,0,-1.3333333,0,388)"
     id="g10"><g
       id="g12"><g
         clip-path="url(#clipPath18)"
         id="g14"><g
           transform="translate(307.288,281.6451)"
           id="g20"><path
             id="path22"
             style="fill:#ee1c24;fill-opacity:1;fill-rule:nonzero;stroke:none"
             d="m 0,0 c -5.297,-4.264 -14.948,-6.31 -25.285,-8.355 -10.338,-2.046 -49.826,-1.844 -75.685,-1.844 -25.858,0 -50.943,-11.322 -56.67,-15.586 -46.533,-7.261 -60.736,-14.117 -67.38,-18.554 35.451,10.977 46.533,11.668 64.603,13.512 -19.215,-10.775 -34.363,-32.181 -36.196,-33.42 -2.634,-1.758 -13.373,-0.49 -16.408,-3.544 -25.772,-20.571 -54.093,-25.065 -60.565,-26.938 48.91,2.421 81.039,17.459 100.426,36.964 19.386,19.505 32.673,27.687 49.855,27.687 17.152,0 31.012,-4.84 41.922,-4.84 10.882,0 15.693,1.296 15.693,1.296 0,0 -2.578,2.766 -2.578,5.561 7.388,-5.388 23.825,-16.307 47.078,-16.307 23.252,0 25.285,6.828 56.126,6.828 16.809,0 22.336,-1.296 38.572,-5.013 -15.205,8.73 -46.705,13.743 -67.208,13.743 -20.503,0 -41.178,-1.124 -44.672,-1.124 12.743,12.821 33.962,20.052 50.027,23.596 C 25.973,-20.744 52.089,-19.332 60.021,-19.332 36.253,3.515 6.672,5.733 -9.965,4.811 -8.104,1.729 -5.154,1.296 0,0 m 3.78,-23.106 c 14.69,0 37.942,-1.671 59.82,-10.026 21.878,-8.355 36.969,-18.266 43.756,-25.065 -9.135,3.889 -40.434,16.163 -67.839,16.163 -27.404,0 -46.819,-7.808 -63.428,-7.808 -16.608,0 -25.743,4.177 -35.451,11.438 -9.135,-1.383 -13.831,-2.219 -22.708,-2.219 -16.609,0 -30.726,5.301 -39.89,5.301 -9.134,0 -19.1,-0.547 -41.264,-22.846 -22.135,-22.357 -58.13,-45.204 -143.694,-38.779 17.267,2.218 52.719,8.729 63.686,13.656 10.968,4.927 13.144,10.314 17.439,13.656 4.124,3.227 8.849,7.808 25.658,9.075 3.493,5.244 16.236,21.205 21.963,24.547 -16.064,-2.218 -41.178,-7.231 -81.039,-25.44 17.554,14.492 40.234,28.782 102.831,40.854 7.761,3.918 30.268,13.742 56.585,15.413 26.316,1.671 46.991,0.922 61.939,0 14.948,-0.922 24.741,3.515 27.318,4.466 2.577,0.95 -7.302,2.794 -7.302,7.433 10.423,2.593 23.252,3.342 31.843,1.959 8.591,-1.383 31.013,-6.396 56.498,-32.037 -10.251,0 -39.059,-3.342 -60.65,11.985 -16.609,-3.054 -27.891,-9.162 -33.79,-13.541 8.619,1.729 27.719,1.815 27.719,1.815" /></g><g
           transform="translate(296.81,5.443)"
           id="g24"><path
             id="path26"
             style="fill:#0f2e5b;fill-opacity:1;fill-rule:nonzero;stroke:none"
             d="m 0,0 h 49.139 l 1.546,188.795 H -0.201 L -68.898,76.232 -97.075,188.795 h -48.194 L -215.37,0 h 48.309 l 39.088,113.801 h 7.13 L -89.916,0 h 17.267 L -3.58,113.801 h 7.646 z" /></g><g
           transform="translate(378.965,5.443)"
           id="g28"><path
             id="path30"
             style="fill:#0f2e5b;fill-opacity:1;fill-rule:nonzero;stroke:none"
             d="M 0,0 H 49.139 L 82.957,188.795 H 33.819 Z" /></g><g
           transform="translate(469.972,5.443)"
           id="g32"><path
             id="path34"
             style="fill:#0f2e5b;fill-opacity:1;fill-rule:nonzero;stroke:none"
             d="m 0,0 h 118.867 l 6.185,34.601 H 55.353 L 82.986,188.795 H 33.847 Z" /></g><g
           transform="translate(616.127,5.443)"
           id="g36"><path
             id="path38"
             style="fill:#0f2e5b;fill-opacity:1;fill-rule:nonzero;stroke:none"
             d="m 0,0 h 118.265 l 6.186,34.601 H 55.353 l 7.703,43.014 h 65.547 l 6.214,34.63 H 69.241 l 7.531,41.948 h 69.127 l 6.185,34.602 H 33.847 Z" /></g><g
           transform="translate(768.984,19.327)"
           id="g40"><path
             id="path42"
             style="fill:#0f2e5b;fill-opacity:1;fill-rule:nonzero;stroke:none"
             d="m 0,0 c 19.473,-12.359 43.47,-19.159 68.125,-19.159 24.054,0 46.905,6.367 64.373,17.892 16.351,10.832 26.717,27.744 30.755,50.303 4.467,24.949 -8.19,39.585 -42.295,48.92 l -14.146,3.947 c -10.023,3.025 -28.35,8.556 -25.601,23.97 2.492,13.915 20.36,20.196 32.244,20.196 12.829,0 25.257,-3.976 35.394,-11.294 l 24.341,32.038 c -17.039,8.182 -40.091,13.339 -60.336,13.339 -43.24,0 -78.032,-25.757 -84.647,-62.663 -5.928,-33.103 9.85,-40.882 47.277,-50.764 l 1.747,-0.461 C 89.802,62.98 113.169,56.872 109.99,39.067 107.07,22.789 89.745,15.471 73.881,15.471 57.1,15.471 41.551,21.55 26.546,33.968 Z" /></g></g></g></g></svg>