<svg width="259" height="67" viewBox="0 0 259 67" fill="none" xmlns="http://www.w3.org/2000/svg">
<path fill-rule="evenodd" clip-rule="evenodd" d="M65.9993 33.522C66.0974 51.3618 51.3848 66.0381 33.4424 65.9999C15.5818 65.9645 0.975501 51.3182 1.00003 33.4457C1.02729 15.633 15.6527 0.913189 33.6796 1.00039C51.4911 1.08486 66.1165 15.7012 65.9993 33.522Z" fill="#1B1918"/>
<path d="M65.9993 33.522C66.0974 51.3618 51.3848 66.0381 33.4424 65.9999C15.5818 65.9645 0.975501 51.3182 1.00003 33.4457C1.02729 15.633 15.6527 0.913189 33.6796 1.00039C51.4911 1.08486 66.1165 15.7012 65.9993 33.522Z" stroke="#0082C2" stroke-width="2"/>
<path fill-rule="evenodd" clip-rule="evenodd" d="M23.0227 28.0377C22.6356 28.3919 22.284 28.7162 21.9352 29.0377C21.6081 29.3402 21.2783 29.6426 20.954 29.9506C20.5315 30.3566 20.248 30.798 20.526 31.4193C20.8149 32.0623 21.3028 32.5256 21.9869 32.4575C22.8837 32.3703 23.7913 32.1741 24.6362 31.8662C25.4048 31.5882 26.0862 31.0759 26.8275 30.7081C27.7188 30.2666 28.6155 29.8361 29.5368 29.4655C30.6215 29.0295 31.66 29.2067 32.6275 29.8579C36.4188 32.4111 40.2373 34.9289 43.9877 37.5421C44.819 38.1225 45.5031 38.9727 46.1055 39.8092C46.8877 40.8964 46.6506 42.3461 45.7484 43.2507C45.2278 43.7739 44.6064 43.9401 44.0095 43.5995C42.813 42.9183 41.6737 42.1363 40.5181 41.3896C40.0983 41.1172 39.6922 40.8229 39.2452 40.5885C39.5369 40.9046 39.8557 41.1989 40.112 41.5395C40.6816 42.297 41.3902 43.0082 41.7364 43.8611C42.3851 45.4552 41.0441 47.1691 39.3597 47.0329C39.0272 47.0056 38.6538 46.8476 38.3976 46.6351C37.3564 45.7604 36.3534 44.8366 35.3313 43.9347C35.1841 43.8039 35.0179 43.6922 34.8598 43.5696C34.8162 43.6104 34.7726 43.654 34.729 43.6949C34.8652 43.8584 34.9906 44.0301 35.1378 44.1799C36.059 45.1227 36.9994 46.0492 37.907 47.0084C38.6374 47.7795 38.3948 48.6869 37.3646 48.9485C36.5496 49.1556 35.781 49.1447 35.0315 48.5425C33.9467 47.6651 32.7584 46.913 31.6082 46.1201C31.4665 46.022 31.2729 45.9974 31.0385 46.0601C31.1966 46.1773 31.3602 46.2917 31.5155 46.4116C32.4558 47.1419 33.3907 47.8776 34.3365 48.5997C34.7208 48.894 34.6199 49.161 34.331 49.4362C33.745 50.003 32.4368 50.1147 31.7717 49.6488C31.213 49.2591 30.6379 48.8913 30.1146 48.458C29.733 48.1419 29.4577 47.6978 29.0789 47.3762C28.6046 46.9702 28.0731 46.6269 27.5117 46.2182C28.1631 43.9538 26.9093 42.8475 24.3773 43.2916C24.1728 42.2834 23.6168 41.6104 22.5375 41.4714C21.7171 41.3651 21.1366 41.703 20.7277 42.4687C19.7138 41.7303 18.7653 40.9428 17.7269 40.3079C16.8711 39.7847 16.6585 39.2179 16.901 38.2397C17.7214 34.899 18.4355 31.531 19.2205 28.1794C19.4413 27.2393 19.4849 27.2992 20.387 27.5418C21.2183 27.7734 22.0769 27.8687 23.0227 28.0377Z" fill="white"/>
<path fill-rule="evenodd" clip-rule="evenodd" d="M47.0893 39.7901C46.7513 39.3514 46.4597 38.989 46.1844 38.6184C44.8843 36.8581 42.9846 35.8472 41.2293 34.6618C38.3756 32.7353 35.4893 30.8552 32.652 28.9041C32.0005 28.4573 31.3737 28.3619 30.6732 28.5417C29.8719 28.7461 29.0787 28.9886 28.2992 29.2611C27.9912 29.3701 27.7051 29.5826 27.4488 29.7925C26.1924 30.8334 24.726 31.4383 23.1588 31.7898C22.7445 31.8824 22.2675 31.7816 21.8369 31.6917C21.101 31.5391 20.9048 30.9206 21.4172 30.362C21.905 29.8306 22.4338 29.3319 22.9626 28.8415C23.5377 28.3047 24.1564 27.8142 24.7178 27.2638C25.6691 26.3264 26.8274 25.8005 28.0839 25.419C29.0597 25.1247 30.0327 24.8086 30.9703 24.419C32.2131 23.904 33.456 23.8331 34.767 24.0947C37.4326 24.6261 40.1036 25.1302 42.7829 25.5798C43.715 25.7351 44.6799 25.7814 45.6066 25.3618C45.8055 25.2719 46.2225 25.3754 46.3833 25.5416C46.983 26.1656 47.5962 26.8005 48.0596 27.5253C49.6758 30.0404 50.7933 32.8007 51.8399 35.5883C51.9026 35.7518 51.7881 36.1496 51.6709 36.1905C50.0247 36.7573 48.9808 38.0843 47.7652 39.1961C47.5635 39.3841 47.3537 39.5585 47.0893 39.7901Z" fill="#0082C2"/>
<path fill-rule="evenodd" clip-rule="evenodd" d="M10.4686 38.5775C10.8938 37.1851 11.2917 35.869 11.6979 34.5556C12.5918 31.6563 13.4995 28.7597 14.3771 25.8523C14.5161 25.3945 14.6687 25.2855 15.1375 25.4572C16.1732 25.8386 17.2253 26.1738 18.2855 26.4872C18.7325 26.6207 18.8361 26.8141 18.7216 27.2719C17.8304 30.8361 16.9664 34.403 16.0942 37.9726C16.0588 38.117 16.0397 38.2641 16.0233 38.414C15.8952 39.5149 15.8925 39.5339 14.8268 39.3568C13.4041 39.1225 11.9895 38.85 10.4686 38.5775Z" fill="white"/>
<path fill-rule="evenodd" clip-rule="evenodd" d="M56.5333 35.3786C55.2986 35.7519 54.2275 36.0762 53.0582 36.4277C52.892 35.9808 52.7448 35.5503 52.5731 35.1306C51.6627 32.9344 50.8178 30.7081 49.8093 28.5555C49.1034 27.0486 48.0568 25.7406 46.5986 24.7324C46.7513 24.6343 46.8576 24.5471 46.9775 24.4926C47.8088 24.1139 48.6646 23.7814 49.4686 23.3536C50.0437 23.0457 50.3817 23.1983 50.7578 23.6643C52.2269 25.4872 53.2708 27.5581 54.2057 29.6781C55.0152 31.5229 55.7293 33.4058 56.5333 35.3786Z" fill="#0082C2"/>
<path fill-rule="evenodd" clip-rule="evenodd" d="M23.494 46.6459C23.4668 45.3488 24.0909 44.6322 24.636 43.9292C25.0067 43.4523 26.4567 43.9101 26.7102 44.5777C26.8546 44.9619 26.8519 45.4388 26.7865 45.8557C26.7265 46.2426 26.4921 46.5996 26.3368 46.9702C25.977 47.823 25.4428 48.1637 24.6878 48.022C24.0555 47.9048 23.4913 47.1091 23.494 46.6459Z" fill="#0082C2"/>
<path fill-rule="evenodd" clip-rule="evenodd" d="M20.218 44.7931C20.2698 43.8257 20.8394 43.09 21.4363 42.4197C21.8833 41.9156 23.3415 42.5096 23.5078 43.2562C23.6004 43.6649 23.5296 44.1309 23.4505 44.556C23.396 44.8612 23.1998 45.1364 23.0744 45.4307C22.701 46.3108 22.1941 46.5969 21.3328 46.4035C20.7413 46.2699 20.2262 45.5206 20.218 44.7931Z" fill="#0082C2"/>
<path fill-rule="evenodd" clip-rule="evenodd" d="M30.5861 49.578C29.1906 50.4417 27.7052 50.2346 26.664 49.0193C26.3342 48.6351 26.3506 48.1937 26.6667 47.7986C27.062 47.3027 27.7815 47.1364 28.2694 47.4389C28.5174 47.5915 28.7136 47.8286 28.929 48.0302C29.4686 48.5343 30.011 49.0411 30.5861 49.578Z" fill="#0082C2"/>
<path fill-rule="evenodd" clip-rule="evenodd" d="M17.6341 41.0054C18.4191 41.613 19.2177 42.2043 19.9863 42.831C20.267 43.0599 20.0817 43.5586 19.662 43.8011C18.5281 44.4605 17.2308 43.7384 17.2389 42.4359C17.2417 41.9891 17.318 41.5422 17.3616 41.0953C17.4542 41.0653 17.5442 41.0353 17.6341 41.0054Z" fill="#0082C2"/>
<path fill-rule="evenodd" clip-rule="evenodd" d="M84.5945 20C86.2729 20 88.0834 20.5417 89.3257 21.7572L88.2024 23.488C87.3037 22.7085 85.9425 22.1272 84.7003 22.1272C81.8854 22.1272 80.4052 24.1751 80.4052 26.5401C80.4052 28.9447 81.9382 31.1247 84.7267 31.1247C86.1011 31.1247 87.4755 30.4509 88.4535 29.4996L89.6825 31.1776C88.5724 32.3006 86.9337 33.2519 84.6342 33.2519C80.6035 33.2519 78 30.3452 78 26.5665C78 22.8539 80.7356 20 84.5945 20Z" fill="#1B1918"/>
<path fill-rule="evenodd" clip-rule="evenodd" d="M91.6781 20.2109H102.066V33.04H99.7396V22.2192H94.004V33.04H91.6781V20.2109Z" fill="#1B1918"/>
<path fill-rule="evenodd" clip-rule="evenodd" d="M111.038 20C114.818 20 117.673 22.8671 117.673 26.5401C117.673 30.3188 114.818 33.2651 111.038 33.2651C107.259 33.2651 104.404 30.3188 104.404 26.5401C104.404 22.8671 107.259 20 111.038 20ZM111.038 31.1247C113.391 31.1247 115.267 29.1429 115.267 26.5401C115.267 24.0429 113.391 22.1272 111.038 22.1272C108.686 22.1272 106.81 24.0429 106.81 26.5401C106.81 29.1429 108.686 31.1247 111.038 31.1247Z" fill="#1B1918"/>
<path fill-rule="evenodd" clip-rule="evenodd" d="M120.012 20.2109H124.968C127.373 20.2109 129.052 21.8889 129.052 24.386C129.052 26.8831 127.373 28.6139 124.968 28.6139H122.351V33.04H120.025V20.2109H120.012ZM124.532 26.5924C125.893 26.5924 126.686 25.7204 126.686 24.386C126.686 23.0648 125.893 22.2192 124.571 22.2192H122.351V26.5924H124.532V26.5924Z" fill="#1B1918"/>
<path fill-rule="evenodd" clip-rule="evenodd" d="M133.981 22.2192H129.766V20.2109H140.496V22.2192H136.294V33.04H133.981V22.2192Z" fill="#1B1918"/>
<path fill-rule="evenodd" clip-rule="evenodd" d="M142.32 20.2109H152.708V33.04H150.382V22.2192H144.659V33.04H142.32V20.2109Z" fill="#1B1918"/>
<path fill-rule="evenodd" clip-rule="evenodd" d="M155.813 20.2109H158.139V27.623C158.139 28.3893 158.007 29.6048 158.007 29.6048H158.047C158.047 29.6048 158.668 28.3629 159.13 27.5966L163.967 20.2109H166.28V33.04H163.967V25.6544C163.967 24.8881 164.099 23.6725 164.099 23.6725H164.06C164.06 23.6725 163.465 24.9013 162.989 25.6544L158.113 33.04H155.8V20.2109H155.813Z" fill="#1B1918"/>
<path fill-rule="evenodd" clip-rule="evenodd" d="M172.319 22.2192H168.103V20.2109H178.847V22.2192H174.632V33.04H172.319V22.2192Z" fill="#1B1918"/>
<path d="M184.623 26.8837H179.204V28.8919H184.623V26.8837Z" fill="#1B1918"/>
<path fill-rule="evenodd" clip-rule="evenodd" d="M187.953 20.2109H190.279V27.623C190.279 28.3893 190.146 29.6048 190.146 29.6048H190.186C190.186 29.6048 190.807 28.3629 191.27 27.5966L196.107 20.2109H198.419V33.04H196.107V25.6544C196.107 24.8881 196.239 23.6725 196.239 23.6725H196.199C196.199 23.6725 195.604 24.9013 195.129 25.6544L190.252 33.04H187.939V20.2109H187.953Z" fill="#0082C2"/>
<path fill-rule="evenodd" clip-rule="evenodd" d="M201.552 20.2109H203.878V25.6544H209.759V20.2109H212.072V33.04H209.759V27.6626H203.878V33.04H201.552V20.2109Z" fill="#0082C2"/>
<path fill-rule="evenodd" clip-rule="evenodd" d="M215.164 20.2109H219.737C222.062 20.2109 223.714 21.4 223.714 23.514C223.714 24.7031 223.133 25.7336 222.155 26.2621V26.3018C223.569 26.7114 224.23 28.0194 224.23 29.3142C224.23 31.8773 222.168 33.04 219.803 33.04H215.164V20.2109ZM219.763 25.4562C220.781 25.4562 221.362 24.7295 221.362 23.8047C221.362 22.8798 220.794 22.2192 219.737 22.2192H217.516V25.4562H219.763ZM220.001 31.0318C221.19 31.0318 221.864 30.2522 221.864 29.1688C221.864 28.0986 221.177 27.3323 220.001 27.3323H217.503V31.0318H220.001Z" fill="#0082C2"/>
<path fill-rule="evenodd" clip-rule="evenodd" d="M226.595 20.2109H234.287V22.2192H228.934V25.5751H233.256V27.5834H228.934V31.0318H234.577V33.04H226.595V20.2109Z" fill="#0082C2"/>
<path fill-rule="evenodd" clip-rule="evenodd" d="M242.493 20C244.172 20 245.982 20.5417 247.225 21.7572L246.101 23.488C245.203 22.7085 243.841 22.1272 242.599 22.1272C239.784 22.1272 238.304 24.1751 238.304 26.5401C238.304 28.9447 239.837 31.1247 242.626 31.1247C244 31.1247 245.374 30.4509 246.352 29.4996L247.581 31.1776C246.471 32.3006 244.833 33.2519 242.533 33.2519C238.502 33.2519 235.899 30.3452 235.899 26.5665C235.899 22.8539 238.635 20 242.493 20Z" fill="#0082C2"/>
<path fill-rule="evenodd" clip-rule="evenodd" d="M252.485 22.2192H248.269V20.2109H259V22.2192H254.797V33.04H252.485V22.2192Z" fill="#0082C2"/>
<path d="M254.075 46.4385L256.411 41.1318H257.541L254.481 48H253.669L250.622 41.1318H251.752L254.075 46.4385ZM251.409 41.1318V48H250.235V41.1318H251.409ZM256.703 48V41.1318H257.884V48H256.703Z" fill="#667580"/>
<path d="M241.802 44.6421V44.4961C241.802 44.001 241.873 43.5418 242.017 43.1187C242.161 42.6912 242.369 42.321 242.639 42.0078C242.91 41.6904 243.238 41.445 243.623 41.2715C244.008 41.0938 244.44 41.0049 244.918 41.0049C245.401 41.0049 245.834 41.0938 246.219 41.2715C246.609 41.445 246.939 41.6904 247.21 42.0078C247.485 42.321 247.694 42.6912 247.838 43.1187C247.982 43.5418 248.054 44.001 248.054 44.4961V44.6421C248.054 45.1372 247.982 45.5964 247.838 46.0195C247.694 46.4427 247.485 46.813 247.21 47.1304C246.939 47.4435 246.611 47.689 246.226 47.8667C245.845 48.0402 245.413 48.127 244.931 48.127C244.448 48.127 244.015 48.0402 243.63 47.8667C243.245 47.689 242.914 47.4435 242.639 47.1304C242.369 46.813 242.161 46.4427 242.017 46.0195C241.873 45.5964 241.802 45.1372 241.802 44.6421ZM242.976 44.4961V44.6421C242.976 44.9849 243.016 45.3086 243.096 45.6133C243.177 45.9137 243.297 46.1803 243.458 46.4131C243.623 46.6458 243.829 46.8299 244.074 46.9653C244.319 47.0965 244.605 47.1621 244.931 47.1621C245.253 47.1621 245.534 47.0965 245.775 46.9653C246.021 46.8299 246.224 46.6458 246.385 46.4131C246.545 46.1803 246.666 45.9137 246.746 45.6133C246.831 45.3086 246.873 44.9849 246.873 44.6421V44.4961C246.873 44.1576 246.831 43.8381 246.746 43.5376C246.666 43.2329 246.543 42.9642 246.378 42.7314C246.217 42.4945 246.014 42.3083 245.769 42.1729C245.528 42.0374 245.244 41.9697 244.918 41.9697C244.597 41.9697 244.313 42.0374 244.068 42.1729C243.826 42.3083 243.623 42.4945 243.458 42.7314C243.297 42.9642 243.177 43.2329 243.096 43.5376C243.016 43.8381 242.976 44.1576 242.976 44.4961Z" fill="#667580"/>
<path d="M238.32 41.1318V48H237.139V41.1318H238.32ZM240.624 41.1318V42.084H234.879V41.1318H240.624Z" fill="#667580"/>
<path d="M231.994 41.1318V42.103H228.522V41.1318H231.994ZM228.693 41.1318V48H227.519V41.1318H228.693ZM233.035 41.1318V48H231.854V41.1318H233.035Z" fill="#667580"/>
<path d="M219.092 44.6421V44.4961C219.092 44.001 219.164 43.5418 219.308 43.1187C219.452 42.6912 219.659 42.321 219.93 42.0078C220.201 41.6904 220.529 41.445 220.914 41.2715C221.299 41.0938 221.731 41.0049 222.209 41.0049C222.692 41.0049 223.125 41.0938 223.51 41.2715C223.9 41.445 224.23 41.6904 224.501 42.0078C224.776 42.321 224.985 42.6912 225.129 43.1187C225.273 43.5418 225.345 44.001 225.345 44.4961V44.6421C225.345 45.1372 225.273 45.5964 225.129 46.0195C224.985 46.4427 224.776 46.813 224.501 47.1304C224.23 47.4435 223.902 47.689 223.517 47.8667C223.136 48.0402 222.704 48.127 222.222 48.127C221.739 48.127 221.306 48.0402 220.921 47.8667C220.535 47.689 220.205 47.4435 219.93 47.1304C219.659 46.813 219.452 46.4427 219.308 46.0195C219.164 45.5964 219.092 45.1372 219.092 44.6421ZM220.267 44.4961V44.6421C220.267 44.9849 220.307 45.3086 220.387 45.6133C220.468 45.9137 220.588 46.1803 220.749 46.4131C220.914 46.6458 221.119 46.8299 221.365 46.9653C221.61 47.0965 221.896 47.1621 222.222 47.1621C222.543 47.1621 222.825 47.0965 223.066 46.9653C223.311 46.8299 223.515 46.6458 223.675 46.4131C223.836 46.1803 223.957 45.9137 224.037 45.6133C224.122 45.3086 224.164 44.9849 224.164 44.6421V44.4961C224.164 44.1576 224.122 43.8381 224.037 43.5376C223.957 43.2329 223.834 42.9642 223.669 42.7314C223.508 42.4945 223.305 42.3083 223.06 42.1729C222.818 42.0374 222.535 41.9697 222.209 41.9697C221.887 41.9697 221.604 42.0374 221.359 42.1729C221.117 42.3083 220.914 42.4945 220.749 42.7314C220.588 42.9642 220.468 43.2329 220.387 43.5376C220.307 43.8381 220.267 44.1576 220.267 44.4961Z" fill="#667580"/>
<path d="M210.935 48.127C210.457 48.127 210.023 48.0465 209.634 47.8857C209.249 47.7207 208.917 47.4901 208.637 47.1938C208.362 46.8976 208.151 46.5464 208.003 46.1401C207.855 45.7339 207.781 45.2896 207.781 44.8071V44.5405C207.781 43.9819 207.863 43.4847 208.028 43.0488C208.193 42.6087 208.417 42.2363 208.701 41.9316C208.984 41.627 209.306 41.3963 209.666 41.2397C210.025 41.0832 210.398 41.0049 210.783 41.0049C211.274 41.0049 211.697 41.0895 212.052 41.2588C212.412 41.4281 212.706 41.665 212.935 41.9697C213.163 42.2702 213.333 42.6257 213.443 43.0361C213.553 43.4424 213.608 43.8867 213.608 44.3691V44.896H208.479V43.9375H212.433V43.8486C212.416 43.5439 212.353 43.2477 212.243 42.96C212.137 42.6722 211.968 42.4352 211.735 42.249C211.502 42.0628 211.185 41.9697 210.783 41.9697C210.516 41.9697 210.271 42.0269 210.047 42.1411C209.822 42.2511 209.63 42.4162 209.469 42.6362C209.308 42.8563 209.183 43.125 209.094 43.4424C209.006 43.7598 208.961 44.1258 208.961 44.5405V44.8071C208.961 45.133 209.006 45.4398 209.094 45.7275C209.188 46.0111 209.321 46.2607 209.494 46.4766C209.672 46.6924 209.886 46.8617 210.135 46.9844C210.389 47.1071 210.677 47.1685 210.999 47.1685C211.413 47.1685 211.765 47.0838 212.052 46.9146C212.34 46.7453 212.592 46.5189 212.808 46.2354L213.519 46.8003C213.371 47.0246 213.182 47.2383 212.954 47.4414C212.725 47.6445 212.444 47.8096 212.11 47.9365C211.78 48.0635 211.388 48.127 210.935 48.127Z" fill="#667580"/>
<path d="M201.252 46.1401L204.419 41.1318H205.6V48H204.419V42.9917L201.252 48H200.084V41.1318H201.252V46.1401Z" fill="#667580"/>
<path d="M196.539 44.1089V45.061H192.908V44.1089H196.539ZM193.155 41.1318V48H191.981V41.1318H193.155ZM197.491 41.1318V48H196.31V41.1318H197.491Z" fill="#667580"/>
<path d="M188.258 46.8257V43.29C188.258 43.0192 188.203 42.7843 188.093 42.5854C187.987 42.3823 187.826 42.2257 187.61 42.1157C187.395 42.0057 187.128 41.9507 186.811 41.9507C186.514 41.9507 186.254 42.0015 186.03 42.103C185.81 42.2046 185.636 42.3379 185.509 42.5029C185.387 42.668 185.325 42.8457 185.325 43.0361H184.151C184.151 42.7907 184.214 42.5474 184.341 42.3062C184.468 42.0649 184.65 41.847 184.887 41.6523C185.129 41.4535 185.416 41.2969 185.751 41.1826C186.089 41.0641 186.466 41.0049 186.88 41.0049C187.38 41.0049 187.82 41.0895 188.201 41.2588C188.586 41.4281 188.886 41.6841 189.102 42.0269C189.322 42.3654 189.432 42.7907 189.432 43.3027V46.502C189.432 46.7305 189.451 46.9738 189.489 47.2319C189.532 47.4901 189.593 47.7122 189.673 47.8984V48H188.448C188.389 47.8646 188.343 47.6847 188.309 47.4604C188.275 47.2319 188.258 47.0203 188.258 46.8257ZM188.461 43.8359L188.474 44.6611H187.287C186.952 44.6611 186.654 44.6886 186.392 44.7437C186.129 44.7944 185.909 44.8727 185.732 44.9785C185.554 45.0843 185.418 45.2176 185.325 45.3784C185.232 45.535 185.186 45.7191 185.186 45.9307C185.186 46.1465 185.234 46.3433 185.332 46.521C185.429 46.6987 185.575 46.8405 185.77 46.9463C185.969 47.0479 186.212 47.0986 186.5 47.0986C186.859 47.0986 187.177 47.0225 187.452 46.8701C187.727 46.7178 187.945 46.5316 188.106 46.3115C188.271 46.0915 188.359 45.8778 188.372 45.6704L188.874 46.2354C188.844 46.4131 188.764 46.6099 188.632 46.8257C188.501 47.0415 188.326 47.2489 188.106 47.4478C187.89 47.6424 187.632 47.8053 187.331 47.9365C187.035 48.0635 186.701 48.127 186.328 48.127C185.863 48.127 185.454 48.036 185.103 47.854C184.756 47.672 184.485 47.4287 184.291 47.124C184.1 46.8151 184.005 46.4702 184.005 46.0894C184.005 45.7212 184.077 45.3975 184.221 45.1182C184.365 44.8346 184.572 44.5998 184.843 44.4136C185.114 44.2231 185.44 44.0793 185.82 43.9819C186.201 43.8846 186.627 43.8359 187.096 43.8359H188.461Z" fill="#667580"/>
<path d="M180.25 41.1318V48H179.07V41.1318H180.25ZM182.554 41.1318V42.084H176.81V41.1318H182.554Z" fill="#667580"/>
<path d="M170.617 46.1401L173.785 41.1318H174.966V48H173.785V42.9917L170.617 48H169.449V41.1318H170.617V46.1401Z" fill="#667580"/>
<path d="M165.822 41.1318V42.103H162.349V41.1318H165.822ZM162.521 41.1318V48H161.347V41.1318H162.521ZM166.863 41.1318V48H165.682V41.1318H166.863Z" fill="#667580"/>
<path d="M152.777 48.127C152.299 48.127 151.865 48.0465 151.476 47.8857C151.091 47.7207 150.758 47.4901 150.479 47.1938C150.204 46.8976 149.992 46.5464 149.844 46.1401C149.696 45.7339 149.622 45.2896 149.622 44.8071V44.5405C149.622 43.9819 149.705 43.4847 149.87 43.0488C150.035 42.6087 150.259 42.2363 150.543 41.9316C150.826 41.627 151.148 41.3963 151.507 41.2397C151.867 41.0832 152.24 41.0049 152.625 41.0049C153.116 41.0049 153.539 41.0895 153.894 41.2588C154.254 41.4281 154.548 41.665 154.776 41.9697C155.005 42.2702 155.174 42.6257 155.284 43.0361C155.394 43.4424 155.449 43.8867 155.449 44.3691V44.896H150.32V43.9375H154.275V43.8486C154.258 43.5439 154.195 43.2477 154.085 42.96C153.979 42.6722 153.81 42.4352 153.577 42.249C153.344 42.0628 153.027 41.9697 152.625 41.9697C152.358 41.9697 152.113 42.0269 151.888 42.1411C151.664 42.2511 151.471 42.4162 151.311 42.6362C151.15 42.8563 151.025 43.125 150.936 43.4424C150.847 43.7598 150.803 44.1258 150.803 44.5405V44.8071C150.803 45.133 150.847 45.4398 150.936 45.7275C151.029 46.0111 151.163 46.2607 151.336 46.4766C151.514 46.6924 151.727 46.8617 151.977 46.9844C152.231 47.1071 152.519 47.1685 152.84 47.1685C153.255 47.1685 153.606 47.0838 153.894 46.9146C154.182 46.7453 154.434 46.5189 154.65 46.2354L155.36 46.8003C155.212 47.0246 155.024 47.2383 154.796 47.4414C154.567 47.6445 154.286 47.8096 153.951 47.9365C153.621 48.0635 153.23 48.127 152.777 48.127Z" fill="#667580"/>
<path d="M141.602 44.6421V44.4961C141.602 44.001 141.674 43.5418 141.818 43.1187C141.962 42.6912 142.169 42.321 142.44 42.0078C142.711 41.6904 143.038 41.445 143.424 41.2715C143.809 41.0938 144.24 41.0049 144.719 41.0049C145.201 41.0049 145.635 41.0938 146.02 41.2715C146.409 41.445 146.739 41.6904 147.01 42.0078C147.285 42.321 147.495 42.6912 147.638 43.1187C147.782 43.5418 147.854 44.001 147.854 44.4961V44.6421C147.854 45.1372 147.782 45.5964 147.638 46.0195C147.495 46.4427 147.285 46.813 147.01 47.1304C146.739 47.4435 146.411 47.689 146.026 47.8667C145.645 48.0402 145.214 48.127 144.731 48.127C144.249 48.127 143.815 48.0402 143.43 47.8667C143.045 47.689 142.715 47.4435 142.44 47.1304C142.169 46.813 141.962 46.4427 141.818 46.0195C141.674 45.5964 141.602 45.1372 141.602 44.6421ZM142.776 44.4961V44.6421C142.776 44.9849 142.816 45.3086 142.897 45.6133C142.977 45.9137 143.098 46.1803 143.259 46.4131C143.424 46.6458 143.629 46.8299 143.874 46.9653C144.12 47.0965 144.405 47.1621 144.731 47.1621C145.053 47.1621 145.334 47.0965 145.575 46.9653C145.821 46.8299 146.024 46.6458 146.185 46.4131C146.346 46.1803 146.466 45.9137 146.547 45.6133C146.631 45.3086 146.674 44.9849 146.674 44.6421V44.4961C146.674 44.1576 146.631 43.8381 146.547 43.5376C146.466 43.2329 146.344 42.9642 146.178 42.7314C146.018 42.4945 145.815 42.3083 145.569 42.1729C145.328 42.0374 145.044 41.9697 144.719 41.9697C144.397 41.9697 144.113 42.0374 143.868 42.1729C143.627 42.3083 143.424 42.4945 143.259 42.7314C143.098 42.9642 142.977 43.2329 142.897 43.5376C142.816 43.8381 142.776 44.1576 142.776 44.4961Z" fill="#667580"/>
<path d="M138.469 44.1089V45.061H134.838V44.1089H138.469ZM135.086 41.1318V48H133.911V41.1318H135.086ZM139.421 41.1318V48H138.24V41.1318H139.421Z" fill="#667580"/>
<path d="M128.995 44.9785H126.742L126.729 44.0391H128.57C128.934 44.0391 129.236 44.0031 129.477 43.9312C129.723 43.8592 129.907 43.7513 130.03 43.6074C130.152 43.4635 130.214 43.2858 130.214 43.0742C130.214 42.9092 130.178 42.7653 130.106 42.6426C130.038 42.5156 129.934 42.4119 129.795 42.3315C129.655 42.2469 129.482 42.1855 129.274 42.1475C129.071 42.1051 128.832 42.084 128.557 42.084H127.053V48H125.878V41.1318H128.557C128.993 41.1318 129.384 41.1699 129.731 41.2461C130.083 41.3223 130.381 41.4386 130.626 41.5952C130.876 41.7476 131.066 41.9422 131.198 42.1792C131.329 42.4162 131.394 42.6955 131.394 43.0171C131.394 43.2244 131.352 43.4212 131.267 43.6074C131.183 43.7936 131.058 43.9587 130.893 44.1025C130.728 44.2464 130.525 44.3649 130.284 44.458C130.042 44.5469 129.765 44.604 129.452 44.6294L128.995 44.9785ZM128.995 48H126.316L126.9 47.0479H128.995C129.321 47.0479 129.592 47.0076 129.807 46.9272C130.023 46.8426 130.184 46.7241 130.29 46.5718C130.4 46.4152 130.455 46.229 130.455 46.0132C130.455 45.7974 130.4 45.6133 130.29 45.4609C130.184 45.3044 130.023 45.1859 129.807 45.1055C129.592 45.0208 129.321 44.9785 128.995 44.9785H127.211L127.224 44.0391H129.452L129.877 44.3945C130.254 44.4242 130.573 44.5173 130.836 44.6738C131.098 44.8304 131.297 45.0293 131.432 45.2705C131.568 45.5075 131.636 45.7656 131.636 46.0449C131.636 46.3665 131.574 46.6501 131.452 46.8955C131.333 47.141 131.16 47.3462 130.931 47.5112C130.703 47.672 130.425 47.7948 130.099 47.8794C129.774 47.9598 129.405 48 128.995 48Z" fill="#667580"/>
<path d="M118.937 46.1401L122.104 41.1318H123.285V48H122.104V42.9917L118.937 48H117.769V41.1318H118.937V46.1401Z" fill="#667580"/>
<path d="M113.608 41.1318V48H112.427V41.1318H113.608ZM115.912 41.1318V42.084H110.168V41.1318H115.912Z" fill="#667580"/>
<path d="M104.591 42.4521V50.6406H103.41V41.1318H104.49L104.591 42.4521ZM109.219 44.5088V44.6421C109.219 45.1414 109.159 45.6048 109.041 46.0322C108.922 46.4554 108.749 46.8236 108.52 47.1367C108.296 47.4499 108.019 47.6932 107.689 47.8667C107.359 48.0402 106.98 48.127 106.552 48.127C106.117 48.127 105.732 48.055 105.397 47.9111C105.063 47.7673 104.779 47.5578 104.547 47.2827C104.314 47.0076 104.128 46.6776 103.988 46.2925C103.853 45.9074 103.76 45.4736 103.709 44.9912V44.2803C103.76 43.7725 103.855 43.3175 103.994 42.9155C104.134 42.5135 104.318 42.1707 104.547 41.8872C104.779 41.5994 105.061 41.3815 105.391 41.2334C105.721 41.0811 106.102 41.0049 106.533 41.0049C106.965 41.0049 107.348 41.0895 107.682 41.2588C108.017 41.4238 108.298 41.6608 108.527 41.9697C108.755 42.2786 108.927 42.6489 109.041 43.0806C109.159 43.508 109.219 43.984 109.219 44.5088ZM108.038 44.6421V44.5088C108.038 44.166 108.002 43.8444 107.93 43.5439C107.858 43.2393 107.746 42.9727 107.594 42.7441C107.445 42.5114 107.255 42.3294 107.022 42.1982C106.789 42.0628 106.512 41.9951 106.191 41.9951C105.894 41.9951 105.636 42.0459 105.416 42.1475C105.2 42.249 105.016 42.3866 104.864 42.5601C104.712 42.7293 104.587 42.924 104.49 43.144C104.396 43.3599 104.327 43.5841 104.28 43.8169V45.4609C104.365 45.7572 104.483 46.0365 104.635 46.2988C104.788 46.557 104.991 46.7664 105.245 46.9272C105.499 47.0838 105.818 47.1621 106.203 47.1621C106.521 47.1621 106.794 47.0965 107.022 46.9653C107.255 46.8299 107.445 46.6458 107.594 46.4131C107.746 46.1803 107.858 45.9137 107.93 45.6133C108.002 45.3086 108.038 44.9849 108.038 44.6421Z" fill="#667580"/>
<path d="M95.0916 44.6421V44.4961C95.0916 44.001 95.1635 43.5418 95.3074 43.1187C95.4513 42.6912 95.6586 42.321 95.9294 42.0078C96.2003 41.6904 96.5282 41.445 96.9133 41.2715C97.2984 41.0938 97.7301 41.0049 98.2083 41.0049C98.6907 41.0049 99.1244 41.0938 99.5095 41.2715C99.8988 41.445 100.229 41.6904 100.5 42.0078C100.775 42.321 100.984 42.6912 101.128 43.1187C101.272 43.5418 101.344 44.001 101.344 44.4961V44.6421C101.344 45.1372 101.272 45.5964 101.128 46.0195C100.984 46.4427 100.775 46.813 100.5 47.1304C100.229 47.4435 99.901 47.689 99.5159 47.8667C99.135 48.0402 98.7034 48.127 98.2209 48.127C97.7385 48.127 97.3048 48.0402 96.9197 47.8667C96.5346 47.689 96.2045 47.4435 95.9294 47.1304C95.6586 46.813 95.4513 46.4427 95.3074 46.0195C95.1635 45.5964 95.0916 45.1372 95.0916 44.6421ZM96.2659 44.4961V44.6421C96.2659 44.9849 96.3061 45.3086 96.3865 45.6133C96.4669 45.9137 96.5875 46.1803 96.7483 46.4131C96.9133 46.6458 97.1186 46.8299 97.364 46.9653C97.6095 47.0965 97.8951 47.1621 98.2209 47.1621C98.5426 47.1621 98.824 47.0965 99.0652 46.9653C99.3106 46.8299 99.5138 46.6458 99.6746 46.4131C99.8354 46.1803 99.956 45.9137 100.036 45.6133C100.121 45.3086 100.163 44.9849 100.163 44.6421V44.4961C100.163 44.1576 100.121 43.8381 100.036 43.5376C99.956 43.2329 99.8333 42.9642 99.6682 42.7314C99.5074 42.4945 99.3043 42.3083 99.0588 42.1729C98.8176 42.0374 98.5341 41.9697 98.2083 41.9697C97.8866 41.9697 97.6031 42.0374 97.3577 42.1729C97.1165 42.3083 96.9133 42.4945 96.7483 42.7314C96.5875 42.9642 96.4669 43.2329 96.3865 43.5376C96.3061 43.8381 96.2659 44.1576 96.2659 44.4961Z" fill="#667580"/>
<path d="M91.8763 41.1318V42.103H88.4042V41.1318H91.8763ZM88.5756 41.1318V48H87.4012V41.1318H88.5756ZM92.9174 41.1318V48H91.7367V41.1318H92.9174Z" fill="#667580"/>
<path d="M82.6436 47.1621C82.9229 47.1621 83.181 47.105 83.418 46.9907C83.6549 46.8765 83.8496 46.7199 84.002 46.521C84.1543 46.3179 84.241 46.0872 84.2622 45.8291H85.3794C85.3582 46.2354 85.2207 46.6141 84.9668 46.9653C84.7171 47.3123 84.3892 47.5938 83.9829 47.8096C83.5767 48.0212 83.1302 48.127 82.6436 48.127C82.1273 48.127 81.6766 48.036 81.2915 47.854C80.9106 47.672 80.5933 47.4224 80.3394 47.105C80.0897 46.7876 79.9014 46.4237 79.7744 46.0132C79.6517 45.5985 79.5903 45.1605 79.5903 44.6992V44.4326C79.5903 43.9714 79.6517 43.5355 79.7744 43.125C79.9014 42.7103 80.0897 42.3442 80.3394 42.0269C80.5933 41.7095 80.9106 41.4598 81.2915 41.2778C81.6766 41.0959 82.1273 41.0049 82.6436 41.0049C83.181 41.0049 83.6507 41.1149 84.0527 41.335C84.4548 41.5508 84.77 41.847 84.9985 42.2236C85.2313 42.596 85.3582 43.0192 85.3794 43.4932H84.2622C84.241 43.2096 84.1606 42.9536 84.021 42.7251C83.8856 42.4966 83.6994 42.3146 83.4624 42.1792C83.2297 42.0396 82.9567 41.9697 82.6436 41.9697C82.2839 41.9697 81.9813 42.0417 81.7358 42.1855C81.4946 42.3252 81.3021 42.5156 81.1582 42.7568C81.0186 42.9938 80.917 43.2583 80.8535 43.5503C80.7943 43.8381 80.7646 44.1322 80.7646 44.4326V44.6992C80.7646 44.9997 80.7943 45.2959 80.8535 45.5879C80.9128 45.8799 81.0122 46.1444 81.1519 46.3813C81.2957 46.6183 81.4883 46.8088 81.7295 46.9526C81.9749 47.0923 82.2796 47.1621 82.6436 47.1621Z" fill="#667580"/>
</svg>
