<svg width="217" height="61" viewBox="0 0 217 61" fill="none" xmlns="http://www.w3.org/2000/svg">
<path d="M4.65366 38.6238H1.61497L4.14367 27.0367H0L0.594988 24.3644H11.8998L11.326 27.0367H7.18236L4.65366 38.6238Z" fill="#E63246"/>
<path d="M20.7402 38.6238H10.7105L13.8341 24.3644H23.8639L23.269 27.0367H16.2778L15.6191 30.0511H22.4615L21.8665 32.7234H15.0241L14.3229 35.9515H21.314L20.7402 38.6238Z" fill="#E63246"/>
<path d="M22.1854 38.8804L22.7591 36.1867C23.5383 36.1867 24.197 35.8803 24.7353 35.2674C25.2737 34.6546 25.8474 33.4502 26.4566 31.6544L28.879 24.3644H38.9513L35.8489 38.6238H32.8102L35.3389 27.0367H31.0252L29.4102 31.8682C28.9286 33.3077 28.4115 34.5049 27.859 35.4598C27.3207 36.4005 26.7399 37.1131 26.1166 37.5977C25.4932 38.0822 24.877 38.4172 24.2678 38.6025C23.6729 38.7877 22.9787 38.8804 22.1854 38.8804Z" fill="#E63246"/>
<path d="M48.6718 38.6238H38.642L41.7657 24.3644H51.7955L51.2005 27.0367H44.2094L43.5507 30.0511H50.393L49.798 32.7234H42.9557L42.2544 35.9515H49.2456L48.6718 38.6238Z" fill="#E63246"/>
<path d="M115.326 38.6238H112.288L114.54 28.3408L108.293 38.6238H106.975L105.233 28.3408L102.98 38.6238H99.9628L103.087 24.3644H107.209L108.675 33.2792L114.094 24.3644H118.45L115.326 38.6238Z" fill="#4B6EB9"/>
<path d="M128.171 38.6238H118.141L121.265 24.3644H131.295L130.7 27.0367H123.709L123.05 30.0511H129.892L129.297 32.7234H122.455L121.754 35.9515H128.745L128.171 38.6238Z" fill="#4B6EB9"/>
<path d="M143.386 38.6238H139.965L137.393 33.5571L132.846 38.6238H129.064L135.885 31.12L132.506 24.3644H135.927L138.243 29.089L142.387 24.3644H146.191L139.752 31.4834L143.386 38.6238Z" fill="#4B6EB9"/>
<path d="M157.941 38.6238H154.669L154.307 36.2081H148.23L146.806 38.6238H143.215L151.821 24.3644H155.604L157.941 38.6238ZM154.052 33.5358L153.202 27.4001L149.654 33.5358H154.052Z" fill="#4B6EB9"/>
<path d="M172 38.6238H168.961L170.278 32.6379H163.585L162.267 38.6238H159.25L162.374 24.3644H165.391L164.18 29.9655H170.852L172.085 24.3644H175.123L172 38.6238Z" fill="#4B6EB9"/>
<path d="M177.704 38.6238H174.793L177.917 24.3644H180.934L178.915 33.6426L187.5 24.3644H190.603L187.479 38.6238H184.44L186.565 29.0035L177.704 38.6238Z" fill="#4B6EB9"/>
<path d="M202.407 38.6238H198.858L195.735 32.7875L194.268 34.2412L193.291 38.6238H190.274L193.397 24.3644H196.415L195.076 30.4786L201.26 24.3644H205.148L198.051 31.0558L202.407 38.6238Z" fill="#4B6EB9"/>
<path d="M217 38.6238H213.728L213.366 36.2081H207.289L205.865 38.6238H202.274L210.88 24.3644H214.663L217 38.6238ZM213.111 33.5358L212.261 27.4001L208.713 33.5358H213.111Z" fill="#4B6EB9"/>
<path d="M63.1954 48.3334L66.0042 46.1606L74.9168 28.8177L72.5958 32.0785C70.4427 32.5034 68.2895 32.9285 66.1363 33.3525L84.423 0C82.4158 3.29365 80.4086 6.58645 78.4014 9.8801H73.0069L72.5088 13.6943C70.2695 14.1486 68.1305 15.0423 66.2245 16.3194L63.1954 13.976L58.9587 18.2459L61.2837 21.2996C60.0163 23.2204 59.13 25.3767 58.6792 27.6338L54.8947 28.1355V34.1739L58.6792 34.6765C59.13 36.933 60.0163 39.089 61.2837 41.0107L58.9587 44.0635L63.1954 48.3334Z" fill="#E63246"/>
<path d="M93.3255 27.6338C92.8751 25.3767 91.989 23.2204 90.721 21.2996L93.0463 18.2459L88.8096 13.976L88.417 14.2794C85.3925 18.9796 82.3679 23.6796 79.3434 28.3789C81.1576 27.7698 82.9717 27.1598 84.7859 26.5504C76.731 38.0336 68.6761 49.5168 60.6212 61L72.5185 48.6888L73.0069 52.4302H78.9981L79.4959 48.6151C81.7353 48.1608 83.8745 47.2677 85.78 45.99L88.8096 48.3334L93.0463 44.0635L90.721 41.0107C91.989 39.089 92.8751 36.933 93.3255 34.6765L97.1106 34.1739V28.1355L93.3255 27.6338Z" fill="#4B6EB9"/>
</svg>
